<svg width="64" height="32" viewBox="0 0 64 32" fill="none" xmlns="http://www.w3.org/2000/svg">
<path d="M39.5999 25L33.2999 18.7C32.7999 19.1 32.2249 19.4167 31.5749 19.65C30.9249 19.8833 30.2333 20 29.4999 20C27.6833 20 26.1458 19.3708 24.8874 18.1125C23.6291 16.8542 22.9999 15.3167 22.9999 13.5C22.9999 11.6833 23.6291 10.1458 24.8874 8.8875C26.1458 7.62917 27.6833 7 29.4999 7C31.3166 7 32.8541 7.62917 34.1124 8.8875C35.3708 10.1458 35.9999 11.6833 35.9999 13.5C35.9999 14.2333 35.8833 14.925 35.6499 15.575C35.4166 16.225 35.0999 16.8 34.6999 17.3L40.9999 23.6L39.5999 25ZM29.4999 18C30.7499 18 31.8124 17.5625 32.6874 16.6875C33.5624 15.8125 33.9999 14.75 33.9999 13.5C33.9999 12.25 33.5624 11.1875 32.6874 10.3125C31.8124 9.4375 30.7499 9 29.4999 9C28.2499 9 27.1874 9.4375 26.3124 10.3125C25.4374 11.1875 24.9999 12.25 24.9999 13.5C24.9999 14.75 25.4374 15.8125 26.3124 16.6875C27.1874 17.5625 28.2499 18 29.4999 18Z" fill="#B4C6D7"/>
</svg>
