<svg width="41" height="41" viewBox="0 0 41 41" fill="none" xmlns="http://www.w3.org/2000/svg">
<path d="M30.75 37.5833C29.3264 37.5833 28.1163 37.085 27.1198 36.0885C26.1233 35.092 25.625 33.8819 25.625 32.4583C25.625 32.259 25.6392 32.0526 25.6677 31.839C25.6962 31.6255 25.7389 31.4333 25.7958 31.2625L13.7521 24.2583C13.2681 24.6854 12.7271 25.0199 12.1292 25.2619C11.5312 25.504 10.9049 25.625 10.25 25.625C8.82639 25.625 7.61632 25.1267 6.61979 24.1302C5.62326 23.1336 5.125 21.9236 5.125 20.5C5.125 19.0763 5.62326 17.8663 6.61979 16.8698C7.61632 15.8732 8.82639 15.375 10.25 15.375C10.9049 15.375 11.5312 15.496 12.1292 15.738C12.7271 15.98 13.2681 16.3145 13.7521 16.7416L25.7958 9.73746C25.7389 9.56663 25.6962 9.37444 25.6677 9.1609C25.6392 8.94735 25.625 8.74093 25.625 8.54163C25.625 7.11801 26.1233 5.90795 27.1198 4.91142C28.1163 3.91489 29.3264 3.41663 30.75 3.41663C32.1736 3.41663 33.3837 3.91489 34.3802 4.91142C35.3767 5.90795 35.875 7.11801 35.875 8.54163C35.875 9.96524 35.3767 11.1753 34.3802 12.1718C33.3837 13.1684 32.1736 13.6666 30.75 13.6666C30.0951 13.6666 29.4688 13.5456 28.8708 13.3036C28.2729 13.0616 27.7319 12.727 27.2479 12.3L15.2042 19.3041C15.2611 19.475 15.3038 19.6671 15.3323 19.8807C15.3608 20.0942 15.375 20.3007 15.375 20.5C15.375 20.6993 15.3608 20.9057 15.3323 21.1192C15.3038 21.3328 15.2611 21.525 15.2042 21.6958L27.2479 28.7C27.7319 28.2729 28.2729 27.9383 28.8708 27.6963C29.4688 27.4543 30.0951 27.3333 30.75 27.3333C32.1736 27.3333 33.3837 27.8316 34.3802 28.8281C35.3767 29.8246 35.875 31.0347 35.875 32.4583C35.875 33.8819 35.3767 35.092 34.3802 36.0885C33.3837 37.085 32.1736 37.5833 30.75 37.5833ZM30.75 10.25C31.234 10.25 31.6398 10.0862 31.9672 9.75881C32.2946 9.43138 32.4583 9.02565 32.4583 8.54163C32.4583 8.0576 32.2946 7.65187 31.9672 7.32444C31.6398 6.99701 31.234 6.83329 30.75 6.83329C30.266 6.83329 29.8602 6.99701 29.5328 7.32444C29.2054 7.65187 29.0417 8.0576 29.0417 8.54163C29.0417 9.02565 29.2054 9.43138 29.5328 9.75881C29.8602 10.0862 30.266 10.25 30.75 10.25ZM10.25 22.2083C10.734 22.2083 11.1398 22.0446 11.4672 21.7171C11.7946 21.3897 11.9583 20.984 11.9583 20.5C11.9583 20.0159 11.7946 19.6102 11.4672 19.2828C11.1398 18.9553 10.734 18.7916 10.25 18.7916C9.76597 18.7916 9.36024 18.9553 9.03281 19.2828C8.70538 19.6102 8.54167 20.0159 8.54167 20.5C8.54167 20.984 8.70538 21.3897 9.03281 21.7171C9.36024 22.0446 9.76597 22.2083 10.25 22.2083ZM30.75 34.1666C31.234 34.1666 31.6398 34.0029 31.9672 33.6755C32.2946 33.348 32.4583 32.9423 32.4583 32.4583C32.4583 31.9743 32.2946 31.5685 31.9672 31.2411C31.6398 30.9137 31.234 30.75 30.75 30.75C30.266 30.75 29.8602 30.9137 29.5328 31.2411C29.2054 31.5685 29.0417 31.9743 29.0417 32.4583C29.0417 32.9423 29.2054 33.348 29.5328 33.6755C29.8602 34.0029 30.266 34.1666 30.75 34.1666Z" fill="#242B33"/>
</svg>
