<svg width="143" height="29" viewBox="0 0 143 29" fill="none" xmlns="http://www.w3.org/2000/svg">
<path d="M51.6564 3.14978H53.4211L53.5139 3.23851L53.6068 7.94099L53.6997 10.6028L54.4427 9.71552L55.0929 9.09443L56.3003 8.38463L57.4148 7.94099L57.7863 7.85227H60.5727L62.2445 8.38463L63.4519 9.00571L64.2878 9.71552L64.9379 10.6028L65.681 11.9337L66.1454 13.6195V16.0151L65.7738 17.5234L64.9379 19.2092L64.102 20.0965L63.4519 20.7176L62.1516 21.4274L60.9442 21.871L59.7368 22.0485H58.3436L57.1362 21.7823L55.3715 20.895L54.1641 19.8303L53.5139 19.1205L53.4211 21.7823L53.0495 21.871H51.8421L51.6564 21.7823V3.14978ZM58.6222 9.27189L56.8575 9.53807L55.6501 10.2479L54.8142 10.9577L54.1641 11.8449L53.6068 12.9984L53.4211 14.0631V15.4827L53.6997 17.0798L54.0712 17.7896L54.8142 18.7656L55.5573 19.4754L56.5789 20.0965L57.7863 20.4514L58.4365 20.5401H59.2724L61.0371 20.1852L62.4302 19.3867L62.616 19.0318L62.9875 18.8543L63.5448 18.0558L64.102 16.8136L64.3807 15.2165V14.418L64.0092 12.6435L63.359 11.4013L62.5231 10.5141L61.5943 9.89297L60.4798 9.44934L59.1795 9.27189H58.6222Z" fill="#B4C6D7"/>
<path d="M73.9569 8.18945H76.6909L78.2783 8.71244L79.2485 9.23542L80.2186 10.0199L81.0124 11.0659L81.4533 12.0247L81.8061 12.9835L81.8943 13.8551V15.1626L81.7179 15.6855L71.8402 15.8599L70.3409 15.947L70.9583 17.8646L71.311 18.5619L72.1048 19.4336L72.9867 19.9566L73.7805 20.3052L74.8388 20.4795H75.9853L77.22 20.218L78.2783 19.6951L78.8075 19.2592L79.3367 18.5619L79.7776 17.6903H81.5415L81.3651 18.5619L80.836 19.5207L79.8658 20.5667L79.0721 21.1768L77.4846 21.8742L76.5145 22.0485H74.2214L73.1631 21.787L71.752 21.1768L70.7819 20.4795L70.1645 19.8694L69.459 18.8234L68.8416 17.3416L68.6652 16.6443V13.6808L69.018 12.3733L69.7235 10.8915L70.6055 9.84556L71.4874 9.14825L72.9867 8.45094L73.9569 8.18945ZM74.8388 9.58407L73.6923 9.7584L72.2812 10.4557L71.8402 10.8044L71.1346 11.676L70.6937 12.5476L70.3409 13.6808V14.2909L70.4291 14.3781L71.1346 14.4652H77.0436L80.1304 14.3781V13.4193L79.6013 11.8503L78.8957 10.8915L78.1902 10.3685L77.1318 9.84556L75.7207 9.58407H74.8388Z" fill="#B4C6D7"/>
<path d="M89.4919 3.77979H91.1241L93.0283 4.22755L94.0257 4.76486L94.9324 5.48128L95.4765 6.1977L96.1112 7.54099L96.2019 8.16786L95.7485 8.25741H94.3884L94.207 8.16786L93.663 7.00368L93.0283 6.28726L91.9402 5.74994L91.0334 5.48128H89.4919L88.2225 5.83949L87.4064 6.37681L86.953 6.91412L86.5903 7.63055V9.4216L87.0437 10.3171L87.4971 10.7649L88.3131 11.2126L89.2199 11.5709L93.0283 12.8246L94.4791 13.541L95.2045 14.1679L95.7485 14.7948L96.2926 16.138L96.3833 16.6754V17.6604L96.0206 18.9142L95.4765 19.8992L94.8418 20.6157L93.8443 21.3321L92.5749 21.8694L91.3054 22.0485H89.5826L88.3131 21.8694L86.8623 21.2425L85.9556 20.5261L85.5022 20.0784L84.8675 19.1828L84.5048 18.1977L84.4141 17.9291V17.3022H86.2276L87.1344 19.0933L87.4971 19.541L88.5852 20.1679L89.3106 20.347H91.4868L92.5749 20.0784L93.4816 19.4515L94.0257 18.8246L94.2977 18.0186V16.5858L94.0257 15.6903L93.4816 15.0634L92.7562 14.6156L90.4893 13.8097L88.1318 13.0933L86.4996 12.3768L85.4115 11.3918L84.8675 10.4962L84.5954 9.86936V7.63055L85.0488 6.46636L85.6835 5.57084L86.4996 4.85442L87.225 4.40665L88.5852 3.95889L89.4919 3.77979Z" fill="#B4C6D7"/>
<path d="M27.7181 4.40967H29.5748L30.9894 8.41848L32.2272 11.8037L33.3766 15.0107L34.3492 17.5942L35.1449 19.7322L35.3218 19.8213L35.587 19.0196L36.2943 17.2379L37.2669 14.5653L38.4163 11.4474L39.3888 8.68573L40.3614 6.10228L40.9803 4.49875L41.0687 4.40967H42.837L42.5718 5.3896L41.6876 7.79489L40.8035 10.1111L39.3888 13.7636L38.5047 16.347L37.0901 19.9995L36.2943 21.7812L36.1175 22.0484H34.4376L33.9071 21.2467L32.9346 18.8414L31.6083 15.278L30.9894 13.5854L29.84 10.5565L28.5138 6.99312L27.8949 5.30051L27.7181 4.40967Z" fill="#B4C6D7"/>
<path d="M98.9074 8.18945H100.176L100.81 9.43271L102.26 13.0737L104.797 19.29L105.069 19.6452L105.794 17.9579L107.062 14.6722L108.059 12.0968L109.237 9.1663L109.599 8.45587L109.781 8.27826L110.234 8.18945H111.502L111.23 9.0775L109.871 12.2745L107.334 18.4908L106.337 20.9773L103.891 26.8384L103.257 28.2592L103.166 28.348H101.354L101.626 27.46L102.351 25.7727L103.529 22.931L103.891 22.1317L103.8 21.5101L102.894 19.4676L101.716 16.7147L100.72 14.317L99.9947 12.5409L98.4544 8.89989L98.2731 8.27826L98.9074 8.18945Z" fill="#B4C6D7"/>
<path d="M119.567 7.55945H121.327L122.207 7.7417L123.615 8.37958L124.495 9.10859L125.111 9.83759L125.815 11.2956L125.991 12.2069V21.9573L125.903 22.0484H124.495L124.319 21.9573L124.231 13.5737L124.055 12.2069L123.791 11.2956L123.175 10.3843L122.647 9.92872L121.591 9.38196L120.095 9.19971L118.863 9.38196L117.982 9.74647L117.19 10.2932L116.574 11.1134L116.134 12.1157L115.958 12.7536L115.87 14.3939L115.782 21.9573L115.694 22.0484H114.11L114.022 17.7655V8.01508L114.11 7.92395L115.694 7.83283L115.782 7.92395V9.74647H115.958L116.926 8.74408L118.158 8.01508L119.039 7.65057L119.567 7.55945Z" fill="#B4C6D7"/>
<path d="M136.157 7.55945H137.07L138.529 7.74056L139.716 8.19334L140.719 8.73668L141.814 9.7328L142.635 11.0006L143 12.0873V12.3589L142.453 12.4495L141.084 12.3589L140.537 11.0911L139.716 10.1856L138.986 9.7328L137.982 9.37057H135.245L134.241 9.7328L133.238 10.3667L132.599 11.0911L132.052 12.1778L131.687 13.355V16.3434L132.234 17.9734L132.782 18.879L133.512 19.5129L134.606 20.1468L135.792 20.4184H137.252L138.621 20.1468L140.08 19.3317L140.628 18.4262L141.175 17.3395L141.449 17.249L142.909 17.3395L142.818 18.1545L141.996 19.694L141.175 20.5995L140.263 21.2334L138.803 21.8673L137.8 22.0484H135.428L133.968 21.6862L132.69 21.0523L131.778 20.3279L130.866 19.2412L130.136 17.7923L129.771 16.6151V13.0834L130.136 11.9061L130.866 10.4572L131.413 9.7328L132.234 8.91779L133.512 8.19334L134.789 7.74056L136.157 7.55945Z" fill="#B4C6D7"/>
<path d="M46.7427 8.18945H47.7821L47.8766 8.27887V22.0485H46.0812L45.9868 21.8697V8.45769L46.0812 8.27887L46.7427 8.18945Z" fill="#B4C6D7"/>
<path d="M19.158 0H19.2602L19.4646 0.612526L20.1287 3.77725L20.6396 6.2784L21.0994 8.32015L21.4059 9.64729V10.2598L20.7929 10.464L18.9026 10.8723L15.7351 11.587L15.0199 11.7401V11.8932L17.7276 11.3317L20.282 10.7703L20.895 10.6682H21.2016L21.0483 11.3317L19.9755 14.0371L19.5667 15.0579L18.6982 17.1507L18.3917 17.9164L17.7276 19.3967L17.0634 20.979L16.6547 21.9489L16.3993 22.5103L15.9906 23.4802L15.5819 24.399L15.2753 24.8584H15.1221L15.2243 23.5823L15.5308 20.8769L15.8884 17.5591L16.1438 15.2111L16.246 14.2923L15.9906 14.5475L15.7862 16.1299L15.5819 18.0185L15.4286 19.2946L15.1221 22.3062L14.9177 24.1437L14.8155 24.9605L14.7134 25.1646L14.4068 24.9094L13.896 24.1948L13.0786 23.0208L12.7209 22.4593L12.1079 21.5916L11.597 20.8259L10.1154 18.631L9.24694 17.3039L8.5828 16.232L7.86757 15.109L6.74363 13.3735L6.28383 12.6589L5.5686 11.587L5.21098 11.0255L5.05772 10.8213V10.7192L4.85337 10.6171L4.24031 10.1577L3.11637 9.39207L2.1457 8.67746L1.99243 8.57537L2.04352 8.42224L3.4229 7.60554L4.03596 7.24823L4.85337 6.83988L5.67078 6.38048L6.38601 5.97213L7.66321 5.25752L9.04259 4.49186L10.4731 3.67516L11.1372 3.31785L11.3926 3.3689L11.8014 3.87933L12.6188 5.15543L14.3558 7.75867L14.6623 8.16702L14.8155 7.96284L15.1221 7.40136L15.7351 6.32944L16.3482 5.20647L16.9613 4.03247L17.5743 2.9095L18.3406 1.42923L18.9537 0.306263L19.158 0Z" fill="#B4C6D7"/>
<path d="M8.32736 16.6913H8.53172L8.42954 17.2017L7.86757 18.5289L7.45887 19.4987L7.40778 19.907L7.66322 20.2133L8.1741 20.6217L8.73607 21.0811L9.4513 21.6936L10.3198 22.3572L10.9839 22.9186L11.6992 23.4801L12.2611 23.9395L12.9764 24.501L13.7938 25.1646L14.2025 25.4708L14.5601 25.7771V25.8281H12.9253L10.2176 25.5729L8.32736 25.3687L5.5686 25.1135L3.8827 24.8583L3.62726 24.7562L2.91202 23.6843L2.24788 22.5613L1.22611 20.8258L0.613057 19.805L0.0510881 18.8351L0 18.5799L0.357617 18.4268L2.70767 17.9163L3.93379 17.6611L5.36425 17.3549L6.74363 17.0486L8.32736 16.6913Z" fill="#B4C6D7"/>
<path d="M1.63482 9.03467L1.89026 9.08571L2.96311 9.80033L3.78052 10.3618L4.39358 10.8212L4.59793 11.0254L4.54684 11.3316L4.18923 11.9442L3.4229 13.1182L1.37938 16.1808L0.204352 17.9163L0.0510881 18.0184L0 17.9673L0.0510881 17.2017L0.357617 15.5172L0.81741 13.0161L1.12394 11.3827L1.37938 10.1066L1.58373 9.13676L1.63482 9.03467Z" fill="#B4C6D7"/>
<path d="M21.9679 11.2806L22.07 11.4338L22.3766 14.4454L22.5298 16.385L22.632 18.5799V19.0904L22.3766 19.0393L21.5592 18.8351L19.72 18.2226L19.2091 17.9674L19.7711 16.4871L20.1798 15.4662L20.7928 13.986L21.2526 12.863L21.8657 11.3827L21.9679 11.2806Z" fill="#B4C6D7"/>
<path d="M19.0048 18.5289L19.5157 18.58L22.2233 19.4988L22.3255 19.5498L22.2233 19.805L21.7125 20.3155L21.1505 20.7749L20.3331 21.5405L19.7711 21.9999L19.0048 22.7145L18.5961 23.0718L18.0852 23.5312L17.6765 23.8885L16.7569 24.6032L16.5015 24.7563L16.3482 24.7052L16.5015 24.2458L16.7569 23.6333L17.4211 22.102L17.7276 21.3874L18.1363 20.4176L18.8004 18.8352L19.0048 18.5289Z" fill="#B4C6D7"/>
</svg>
