<svg width="129" height="129" viewBox="0 0 129 129" fill="none" xmlns="http://www.w3.org/2000/svg">
<circle cx="64.5" cy="64.5" r="64.5" fill="#6D8299"/>
<path d="M64.5 64.5C60.5125 64.5 57.099 63.0802 54.2594 60.2406C51.4198 57.401 50 53.9875 50 50C50 46.0125 51.4198 42.599 54.2594 39.7594C57.099 36.9198 60.5125 35.5 64.5 35.5C68.4875 35.5 71.901 36.9198 74.7406 39.7594C77.5802 42.599 79 46.0125 79 50C79 53.9875 77.5802 57.401 74.7406 60.2406C71.901 63.0802 68.4875 64.5 64.5 64.5ZM35.5 93.5V83.35C35.5 81.2958 36.0286 79.4078 37.0859 77.6859C38.1432 75.9641 39.5479 74.65 41.3 73.7438C45.0458 71.8708 48.8521 70.4661 52.7188 69.5297C56.5854 68.5932 60.5125 68.125 64.5 68.125C68.4875 68.125 72.4146 68.5932 76.2812 69.5297C80.1479 70.4661 83.9542 71.8708 87.7 73.7438C89.4521 74.65 90.8568 75.9641 91.9141 77.6859C92.9714 79.4078 93.5 81.2958 93.5 83.35V93.5H35.5ZM42.75 86.25H86.25V83.35C86.25 82.6854 86.0839 82.0812 85.7516 81.5375C85.4193 80.9937 84.9813 80.5708 84.4375 80.2688C81.175 78.6375 77.8823 77.4141 74.5594 76.5984C71.2365 75.7828 67.8833 75.375 64.5 75.375C61.1167 75.375 57.7635 75.7828 54.4406 76.5984C51.1177 77.4141 47.825 78.6375 44.5625 80.2688C44.0187 80.5708 43.5807 80.9937 43.2484 81.5375C42.9161 82.0812 42.75 82.6854 42.75 83.35V86.25ZM64.5 57.25C66.4938 57.25 68.2005 56.5401 69.6203 55.1203C71.0401 53.7005 71.75 51.9938 71.75 50C71.75 48.0062 71.0401 46.2995 69.6203 44.8797C68.2005 43.4599 66.4938 42.75 64.5 42.75C62.5062 42.75 60.7995 43.4599 59.3797 44.8797C57.9599 46.2995 57.25 48.0062 57.25 50C57.25 51.9938 57.9599 53.7005 59.3797 55.1203C60.7995 56.5401 62.5062 57.25 64.5 57.25Z" fill="#242B33"/>
</svg>
