<svg width="23" height="26" viewBox="0 0 23 26" fill="none" xmlns="http://www.w3.org/2000/svg">
<path d="M19.158 0H19.2602L19.4646 0.612526L20.1287 3.77725L20.6396 6.2784L21.0994 8.32015L21.4059 9.64729V10.2598L20.7929 10.464L18.9026 10.8723L15.7351 11.587L15.0199 11.7401V11.8932L17.7276 11.3317L20.282 10.7703L20.895 10.6682H21.2016L21.0483 11.3317L19.9755 14.0371L19.5667 15.0579L18.6982 17.1507L18.3917 17.9164L17.7276 19.3967L17.0634 20.979L16.6547 21.9489L16.3993 22.5103L15.9906 23.4802L15.5819 24.399L15.2753 24.8584H15.1221L15.2243 23.5823L15.5308 20.8769L15.8884 17.5591L16.1438 15.2111L16.246 14.2923L15.9906 14.5475L15.7862 16.1299L15.5819 18.0185L15.4286 19.2946L15.1221 22.3062L14.9177 24.1437L14.8155 24.9605L14.7134 25.1646L14.4068 24.9094L13.896 24.1948L13.0786 23.0208L12.7209 22.4593L12.1079 21.5916L11.597 20.8259L10.1154 18.631L9.24694 17.3039L8.5828 16.232L7.86757 15.109L6.74363 13.3735L6.28383 12.6589L5.5686 11.587L5.21098 11.0255L5.05772 10.8213V10.7192L4.85337 10.6171L4.24031 10.1577L3.11637 9.39207L2.1457 8.67746L1.99243 8.57537L2.04352 8.42224L3.4229 7.60554L4.03596 7.24823L4.85337 6.83988L5.67078 6.38048L6.38601 5.97213L7.66321 5.25752L9.04259 4.49186L10.4731 3.67516L11.1372 3.31785L11.3926 3.3689L11.8014 3.87933L12.6188 5.15543L14.3558 7.75867L14.6623 8.16702L14.8155 7.96284L15.1221 7.40136L15.7351 6.32944L16.3482 5.20647L16.9613 4.03247L17.5743 2.9095L18.3406 1.42923L18.9537 0.306263L19.158 0Z" fill="#B4C6D7"/>
<path d="M8.32736 16.6913H8.53172L8.42954 17.2018L7.86757 18.5289L7.45887 19.4988L7.40778 19.9071L7.66322 20.2134L8.1741 20.6217L8.73607 21.0811L9.4513 21.6936L10.3198 22.3572L10.9839 22.9187L11.6992 23.4802L12.2611 23.9396L12.9764 24.5011L13.7938 25.1646L14.2025 25.4709L14.5601 25.7772V25.8282H12.9253L10.2176 25.573L8.32736 25.3688L5.5686 25.1136L3.8827 24.8584L3.62726 24.7563L2.91202 23.6844L2.24788 22.5614L1.22611 20.8259L0.613057 19.805L0.0510881 18.8352L0 18.58L0.357617 18.4268L2.70767 17.9164L3.93379 17.6612L5.36425 17.3549L6.74363 17.0487L8.32736 16.6913Z" fill="#B4C6D7"/>
<path d="M1.63482 9.03473L1.89026 9.08577L2.96311 9.80039L3.78052 10.3619L4.39358 10.8213L4.59793 11.0254L4.54684 11.3317L4.18923 11.9442L3.4229 13.1182L1.37938 16.1809L0.204352 17.9164L0.0510881 18.0184L0 17.9674L0.0510881 17.2017L0.357617 15.5173L0.81741 13.0162L1.12394 11.3827L1.37938 10.1067L1.58373 9.13682L1.63482 9.03473Z" fill="#B4C6D7"/>
<path d="M21.9679 11.2807L22.07 11.4338L22.3766 14.4454L22.5298 16.3851L22.632 18.58V19.0904L22.3766 19.0394L21.5592 18.8352L19.72 18.2227L19.2091 17.9674L19.7711 16.4872L20.1798 15.4663L20.7928 13.986L21.2526 12.8631L21.8657 11.3828L21.9679 11.2807Z" fill="#B4C6D7"/>
<path d="M19.0048 18.5289L19.5157 18.5799L22.2233 19.4987L22.3255 19.5497L22.2233 19.805L21.7125 20.3154L21.1505 20.7748L20.3331 21.5405L19.7711 21.9999L19.0048 22.7145L18.5961 23.0718L18.0852 23.5312L17.6765 23.8885L16.7569 24.6031L16.5015 24.7562L16.3482 24.7052L16.5015 24.2458L16.7569 23.6333L17.4211 22.1019L17.7276 21.3873L18.1363 20.4175L18.8004 18.8351L19.0048 18.5289Z" fill="#B4C6D7"/>
</svg>
