<svg width="183" height="173" viewBox="0 0 183 173" fill="none" xmlns="http://www.w3.org/2000/svg">
<path d="M38 132.41H40.8013L40.9487 132.551L41.0962 140.016L41.2436 144.241L42.4231 142.833L43.4551 141.847L45.3718 140.72L47.141 140.016L47.7308 139.875H52.1538L54.8077 140.72L56.7244 141.706L58.0513 142.833L59.0833 144.241L60.2628 146.354L61 149.03V152.833L60.4103 155.227L59.0833 157.903L57.7564 159.311L56.7244 160.297L54.6603 161.424L52.7436 162.128L50.8269 162.41H48.6154L46.6987 161.988L43.8974 160.579L41.9808 158.889L40.9487 157.762L40.8013 161.988L40.2115 162.128H38.2949L38 161.988V132.41ZM49.0577 142.128L46.2564 142.551L44.3397 143.678L43.0128 144.804L41.9808 146.213L41.0962 148.044L40.8013 149.734V151.988L41.2436 154.523L41.8333 155.65L43.0128 157.199L44.1923 158.326L45.8141 159.311L47.7308 159.875L48.7628 160.016H50.0897L52.891 159.452L55.1026 158.185L55.3974 157.621L55.9872 157.34L56.8718 156.072L57.7564 154.1L58.1987 151.565V150.297L57.609 147.48L56.5769 145.509L55.25 144.1L53.7756 143.114L52.0064 142.41L49.9423 142.128H49.0577Z" fill="#B4C6D7"/>
<path d="M73.4 140.41H77.74L80.26 141.24L81.8 142.07L83.34 143.316L84.6 144.976L85.3 146.498L85.86 148.02L86 149.404V151.479L85.72 152.309L70.04 152.586L67.66 152.725L68.64 155.769L69.2 156.875L70.46 158.259L71.86 159.089L73.12 159.643L74.8 159.919H76.62L78.58 159.504L80.26 158.674L81.1 157.982L81.94 156.875L82.64 155.492H85.44L85.16 156.875L84.32 158.397L82.78 160.058L81.52 161.026L79 162.133L77.46 162.41H73.82L72.14 161.995L69.9 161.026L68.36 159.919L67.38 158.951L66.26 157.291L65.28 154.938L65 153.831V149.127L65.56 147.052L66.68 144.699L68.08 143.039L69.48 141.932L71.86 140.825L73.4 140.41ZM74.8 142.624L72.98 142.901L70.74 144.008L70.04 144.561L68.92 145.945L68.22 147.328L67.66 149.127V150.096L67.8 150.234L68.92 150.372H78.3L83.2 150.234V148.712L82.36 146.221L81.24 144.699L80.12 143.869L78.44 143.039L76.2 142.624H74.8Z" fill="#B4C6D7"/>
<path d="M98.0606 133.41H100.652L103.674 134.121L105.258 134.974L106.697 136.111L107.561 137.248L108.568 139.381L108.712 140.376L107.992 140.518H105.833L105.545 140.376L104.682 138.528L103.674 137.39L101.947 136.538L100.508 136.111H98.0606L96.0455 136.68L94.75 137.533L94.0303 138.386L93.4545 139.523V142.366L94.1742 143.788L94.8939 144.498L96.1894 145.209L97.6288 145.778L103.674 147.768L105.977 148.905L107.129 149.9L107.992 150.895L108.856 153.028L109 153.881V155.444L108.424 157.435L107.561 158.998L106.553 160.136L104.97 161.273L102.955 162.126L100.939 162.41H98.2045L96.1894 162.126L93.8864 161.131L92.447 159.993L91.7273 159.283L90.7197 157.861L90.1439 156.297L90 155.871V154.876H92.8788L94.3182 157.719L94.8939 158.43L96.6212 159.425L97.7727 159.709H101.227L102.955 159.283L104.394 158.288L105.258 157.292L105.689 156.013V153.738L105.258 152.317L104.394 151.322L103.242 150.611L99.6439 149.332L95.9015 148.194L93.3106 147.057L91.5833 145.493L90.7197 144.072L90.2879 143.077V139.523L91.0076 137.675L92.0152 136.253L93.3106 135.116L94.4621 134.405L96.6212 133.694L98.0606 133.41Z" fill="#B4C6D7"/>
<path d="M0 134.41H2.94737L5.19298 140.774L7.15789 146.147L8.98246 151.238L10.5263 155.339L11.7895 158.733L12.0702 158.875L12.4912 157.602L13.614 154.774L15.1579 150.531L16.9825 145.582L18.5263 141.198L20.0702 137.097L21.0526 134.551L21.193 134.41H24L23.5789 135.966L22.1754 139.784L20.7719 143.461L18.5263 149.259L17.1228 153.36L14.8772 159.158L13.614 161.986L13.3333 162.41H10.6667L9.82456 161.137L8.2807 157.319L6.17544 151.663L5.19298 148.976L3.36842 144.168L1.26316 138.511L0.280702 135.824L0 134.41Z" fill="#B4C6D7"/>
<path d="M113.007 140.41H115.021L116.027 142.384L118.329 148.163L122.356 158.031L122.788 158.595L123.938 155.917L125.952 150.701L127.534 146.613L129.404 141.961L129.979 140.833L130.267 140.551L130.986 140.41H133L132.568 141.82L130.411 146.895L126.384 156.762L124.801 160.71L120.918 170.014L119.911 172.269L119.767 172.41H116.89L117.322 171L118.473 168.322L120.342 163.811L120.918 162.542L120.774 161.555L119.336 158.313L117.466 153.943L115.884 150.137L114.733 147.318L112.288 141.538L112 140.551L113.007 140.41Z" fill="#B4C6D7"/>
<path d="M145.801 139.41H148.596L149.993 139.699L152.228 140.712L153.625 141.869L154.603 143.026L155.721 145.341L156 146.787V162.265L155.86 162.41H153.625L153.346 162.265L153.206 148.957L152.926 146.787L152.507 145.341L151.529 143.894L150.691 143.171L149.015 142.303L146.64 142.014L144.684 142.303L143.287 142.882L142.029 143.75L141.051 145.052L140.353 146.643L140.074 147.655L139.934 150.259L139.794 162.265L139.654 162.41H137.14L137 155.611V140.133L137.14 139.989L139.654 139.844L139.794 139.989V142.882H140.074L141.61 141.291L143.566 140.133L144.963 139.555L145.801 139.41Z" fill="#B4C6D7"/>
<path d="M172.138 139.41H173.586L175.903 139.698L177.786 140.416L179.379 141.279L181.117 142.86L182.421 144.873L183 146.598V147.029L182.131 147.173L179.959 147.029L179.09 145.016L177.786 143.579L176.628 142.86L175.034 142.285H170.69L169.097 142.86L167.503 143.866L166.49 145.016L165.621 146.741L165.041 148.61V153.354L165.91 155.941L166.779 157.379L167.938 158.385L169.676 159.391L171.559 159.823H173.876L176.048 159.391L178.366 158.098L179.234 156.66L180.103 154.935L180.538 154.791L182.855 154.935L182.71 156.229L181.407 158.673L180.103 160.11L178.655 161.116L176.338 162.123L174.745 162.41H170.979L168.662 161.835L166.634 160.829L165.186 159.679L163.738 157.954L162.579 155.654L162 153.785V148.179L162.579 146.31L163.738 144.01L164.607 142.86L165.91 141.566L167.938 140.416L169.966 139.698L172.138 139.41Z" fill="#B4C6D7"/>
<path d="M30.2 140.41H31.85L32 140.552V162.41H29.15L29 162.126V140.836L29.15 140.552L30.2 140.41Z" fill="#B4C6D7"/>
<path d="M121.158 0H121.578L122.418 2.51735L125.147 15.5237L127.247 25.8028L129.137 34.194L130.396 39.6482V42.1656L127.877 43.0047L120.108 44.6829L107.091 47.6198L104.151 48.2492V48.8785L115.279 46.5709L125.777 44.2634L128.297 43.8438H129.557L128.927 46.5709L124.518 57.6892L122.838 61.8848L119.269 70.4858L118.009 73.6324L115.279 79.716L112.55 86.2192L110.87 90.205L109.82 92.5126L108.141 96.4984L106.461 100.274L105.201 102.162H104.571L104.991 96.9179L106.251 85.7996L107.721 72.164L108.771 62.5142L109.19 58.7381L108.141 59.787L107.301 66.2902L106.461 74.052L105.831 79.2965L104.571 91.6734L103.731 99.2255L103.312 102.582L102.892 103.421L101.632 102.372L99.5322 99.4353L96.1729 94.6104L94.7031 92.3028L92.1836 88.7365L90.084 85.5899L83.9951 76.5694L80.4258 71.1151L77.6963 66.7097L74.7568 62.0946L70.1377 54.9621L68.248 52.0252L65.3086 47.6198L63.8389 45.3123L63.209 44.4732V44.0536L62.3691 43.634L59.8496 41.746L55.2305 38.5993L51.2412 35.6624L50.6113 35.2429L50.8213 34.6135L56.4902 31.2571L59.0098 29.7886L62.3691 28.1104L65.7285 26.2224L68.668 24.5441L73.917 21.6072L79.5859 18.4606L85.4648 15.1041L88.1943 13.6356L89.2441 13.8454L90.9238 15.9432L94.2832 21.1877L101.422 31.8864L102.682 33.5646L103.312 32.7255L104.571 30.418L107.091 26.0126L109.61 21.3975L112.13 16.5725L114.649 11.9574L117.799 5.87381L120.318 1.25867L121.158 0Z" fill="#B4C6D7"/>
<path d="M76.6465 68.5977H77.4863L77.0664 70.6955L74.7568 76.1498L73.0771 80.1356L72.8672 81.8138L73.917 83.0725L76.0166 84.7507L78.3262 86.6387L81.2656 89.1561L84.835 91.8832L87.5645 94.1908L90.5039 96.4984L92.8135 98.3864L95.7529 100.694L99.1123 103.421L100.792 104.68L102.262 105.938V106.148H95.543L84.415 105.099L76.6465 104.26L65.3086 103.211L58.3799 102.162L57.3301 101.743L54.3906 97.3375L51.6611 92.7223L47.4619 85.5899L44.9424 81.3943L42.6328 77.4085L42.4229 76.3596L43.8926 75.7302L53.5508 73.6324L58.5898 72.5835L64.4688 71.3249L70.1377 70.0662L76.6465 68.5977Z" fill="#B4C6D7"/>
<path d="M49.1416 37.1309L50.1914 37.3407L54.6006 40.2776L57.96 42.5851L60.4795 44.4732L61.3193 45.3123L61.1094 46.5709L59.6396 49.0883L56.4902 53.9132L48.0918 66.5L43.2627 73.6324L42.6328 74.052L42.4229 73.8422L42.6328 70.6955L43.8926 63.7728L45.7822 53.4937L47.042 46.7807L48.0918 41.5362L48.9316 37.5504L49.1416 37.1309Z" fill="#B4C6D7"/>
<path d="M132.706 46.3612L133.126 46.9905L134.386 59.3675L135.016 67.3391L135.436 76.3596V78.4574L134.386 78.2476L131.026 77.4085L123.468 74.8911L121.368 73.8422L123.678 67.7586L125.357 63.5631L127.877 57.4795L129.767 52.8643L132.286 46.7807L132.706 46.3612Z" fill="#B4C6D7"/>
<path d="M120.528 76.1498L122.628 76.3596L133.756 80.1356L134.176 80.3454L133.756 81.3943L131.656 83.4921L129.347 85.3801L125.987 88.5268L123.678 90.4148L120.528 93.3517L118.849 94.8201L116.749 96.7081L115.069 98.1766L111.29 101.114L110.24 101.743L109.61 101.533L110.24 99.6451L111.29 97.1277L114.02 90.8343L115.279 87.8974L116.959 83.9116L119.688 77.4085L120.528 76.1498Z" fill="#B4C6D7"/>
</svg>
