<svg width="23" height="26" viewBox="0 0 23 26" fill="none" xmlns="http://www.w3.org/2000/svg">
<path d="M19.2855 0H19.3884L19.5941 0.616601L20.2627 3.80237L20.7769 6.32016L21.2398 8.37549L21.5484 9.71146V10.3281L20.9312 10.5336L19.0284 10.9447L15.8399 11.664L15.1199 11.8182V11.9723L17.8455 11.4071L20.4169 10.8419L21.0341 10.7391H21.3426L21.1884 11.4071L20.1084 14.1304L19.697 15.1581L18.8227 17.2648L18.5141 18.0356L17.8455 19.5257L17.177 21.1186L16.7656 22.0949L16.5084 22.6601L16.097 23.6364L15.6856 24.5613L15.377 25.0237H15.2227L15.3256 23.7391L15.6341 21.0158L15.9941 17.6759L16.2513 15.3123L16.3541 14.3873L16.097 14.6443L15.8913 16.2372L15.6856 18.1383L15.5313 19.4229L15.2227 22.4545L15.017 24.3043L14.9142 25.1265L14.8113 25.332L14.5027 25.0751L13.9884 24.3557L13.1656 23.1739L12.8056 22.6087L12.1885 21.7352L11.6742 20.9644L10.1828 18.7549L9.30851 17.419L8.63994 16.3399L7.91995 15.2095L6.78854 13.4624L6.32568 12.7431L5.60569 11.664L5.2457 11.0988L5.09141 10.8933V10.7905L4.8857 10.6877L4.26857 10.2253L3.13715 9.45454L2.16002 8.73518L2.00574 8.63241L2.05717 8.47826L3.44572 7.65613L4.06286 7.29644L4.8857 6.88537L5.70855 6.42292L6.42854 6.01186L7.71424 5.29249L9.10279 4.52174L10.5428 3.6996L11.2113 3.33992L11.4685 3.3913L11.8799 3.90514L12.7028 5.18972L14.4513 7.81028L14.7599 8.22134L14.9142 8.01581L15.2227 7.45059L15.8399 6.37154L16.457 5.24111L17.0741 4.05929L17.6913 2.92885L18.4627 1.43874L19.0798 0.3083L19.2855 0Z" fill="#242B33"/>
<path d="M8.38276 16.8024H8.58847L8.48561 17.3162L7.9199 18.6522L7.50848 19.6285L7.45705 20.0395L7.71419 20.3478L8.22847 20.7589L8.79418 21.2213L9.51417 21.8379L10.3884 22.5059L11.057 23.0711L11.777 23.6364L12.3427 24.0988L13.0627 24.664L13.8855 25.332L14.297 25.6403L14.657 25.9486V26H13.0113L10.2856 25.7431L8.38276 25.5375L5.60565 25.2806L3.90852 25.0237L3.65138 24.9209L2.93139 23.8419L2.26283 22.7115L1.23427 20.9644L0.617135 19.9368L0.0514279 18.9605L0 18.7036L0.359996 18.5494L2.72568 18.0356L3.95995 17.7787L5.39993 17.4704L6.78849 17.1621L8.38276 16.8024Z" fill="#242B33"/>
<path d="M1.64569 9.09485L1.90283 9.14623L2.98282 9.8656L3.80567 10.4308L4.4228 10.8933L4.62852 11.0988L4.57709 11.4071L4.21709 12.0237L3.44567 13.2055L1.38855 16.2885L0.205712 18.0356L0.0514279 18.1383L0 18.0869L0.0514279 17.3162L0.359996 15.6205L0.822847 13.1028L1.13141 11.4585L1.38855 10.1739L1.59427 9.19762L1.64569 9.09485Z" fill="#242B33"/>
<path d="M22.114 11.3557L22.2169 11.5099L22.5254 14.5415L22.6797 16.4941L22.7826 18.7035V19.2174L22.5254 19.166L21.7026 18.9605L19.8512 18.3439L19.3369 18.0869L19.9026 16.5968L20.314 15.5692L20.9312 14.079L21.394 12.9486L22.0112 11.4585L22.114 11.3557Z" fill="#242B33"/>
<path d="M19.1312 18.6522L19.6454 18.7035L22.3711 19.6284L22.474 19.6798L22.3711 19.9367L21.8568 20.4506L21.2911 20.913L20.4683 21.6838L19.9026 22.1462L19.1312 22.8656L18.7197 23.2253L18.2055 23.6877L17.794 24.0474L16.8683 24.7668L16.6112 24.9209L16.4569 24.8696L16.6112 24.4071L16.8683 23.7905L17.5369 22.249L17.8455 21.5296L18.2569 20.5533L18.9255 18.9605L19.1312 18.6522Z" fill="#242B33"/>
</svg>
