<svg width="34" height="34" viewBox="0 0 34 34" fill="none" xmlns="http://www.w3.org/2000/svg">
<path d="M17 17C15.4416 17 14.1076 16.4451 12.9979 15.3354C11.8882 14.2257 11.3333 12.8917 11.3333 11.3333C11.3333 9.77499 11.8882 8.44096 12.9979 7.33124C14.1076 6.22152 15.4416 5.66666 17 5.66666C18.5583 5.66666 19.8923 6.22152 21.002 7.33124C22.1118 8.44096 22.6666 9.77499 22.6666 11.3333C22.6666 12.8917 22.1118 14.2257 21.002 15.3354C19.8923 16.4451 18.5583 17 17 17ZM5.66663 28.3333V24.3667C5.66663 23.5639 5.87322 22.826 6.28642 22.1531C6.69961 21.4802 7.24857 20.9667 7.93329 20.6125C9.39718 19.8805 10.8847 19.3316 12.3958 18.9656C13.9069 18.5996 15.4416 18.4167 17 18.4167C18.5583 18.4167 20.093 18.5996 21.6041 18.9656C23.1152 19.3316 24.6027 19.8805 26.0666 20.6125C26.7514 20.9667 27.3003 21.4802 27.7135 22.1531C28.1267 22.826 28.3333 23.5639 28.3333 24.3667V28.3333H5.66663ZM8.49996 25.5H25.5V24.3667C25.5 24.1069 25.435 23.8708 25.3052 23.6583C25.1753 23.4458 25.0041 23.2805 24.7916 23.1625C23.5166 22.525 22.2298 22.0469 20.9312 21.7281C19.6326 21.4094 18.3222 21.25 17 21.25C15.6777 21.25 14.3673 21.4094 13.0687 21.7281C11.7701 22.0469 10.4833 22.525 9.20829 23.1625C8.99579 23.2805 8.82461 23.4458 8.69475 23.6583C8.56489 23.8708 8.49996 24.1069 8.49996 24.3667V25.5ZM17 14.1667C17.7791 14.1667 18.4461 13.8892 19.001 13.3344C19.5559 12.7795 19.8333 12.1125 19.8333 11.3333C19.8333 10.5542 19.5559 9.88714 19.001 9.33228C18.4461 8.77742 17.7791 8.49999 17 8.49999C16.2208 8.49999 15.5538 8.77742 14.9989 9.33228C14.4441 9.88714 14.1666 10.5542 14.1666 11.3333C14.1666 12.1125 14.4441 12.7795 14.9989 13.3344C15.5538 13.8892 16.2208 14.1667 17 14.1667Z" fill="#242B33"/>
</svg>
