<svg width="48" height="41" viewBox="0 0 48 41" fill="none" xmlns="http://www.w3.org/2000/svg">
<g clip-path="url(#clip0_85_25)">
<path d="M31.6 29.5L25.3 23.2C24.8 23.6 24.225 23.9167 23.575 24.15C22.925 24.3833 22.2333 24.5 21.5 24.5C19.6833 24.5 18.1458 23.8708 16.8875 22.6125C15.6292 21.3542 15 19.8167 15 18C15 16.1833 15.6292 14.6458 16.8875 13.3875C18.1458 12.1292 19.6833 11.5 21.5 11.5C23.3167 11.5 24.8542 12.1292 26.1125 13.3875C27.3708 14.6458 28 16.1833 28 18C28 18.7333 27.8833 19.425 27.65 20.075C27.4167 20.725 27.1 21.3 26.7 21.8L33 28.1L31.6 29.5ZM21.5 22.5C22.75 22.5 23.8125 22.0625 24.6875 21.1875C25.5625 20.3125 26 19.25 26 18C26 16.75 25.5625 15.6875 24.6875 14.8125C23.8125 13.9375 22.75 13.5 21.5 13.5C20.25 13.5 19.1875 13.9375 18.3125 14.8125C17.4375 15.6875 17 16.75 17 18C17 19.25 17.4375 20.3125 18.3125 21.1875C19.1875 22.0625 20.25 22.5 21.5 22.5Z" fill="#242B33"/>
</g>
<defs>
<clipPath id="clip0_85_25">
<rect x="4" y="0.5" width="40" height="40" rx="20" fill="white"/>
</clipPath>
</defs>
</svg>
