<svg width="45" height="52" viewBox="0 0 45 52" fill="none" xmlns="http://www.w3.org/2000/svg">
<path d="M38.0925 0H38.2957L38.702 1.21791L40.0226 7.51042L41.0384 12.4835L41.9526 16.5432L42.5621 19.182V20.3999L41.3431 20.8059L37.5846 21.6178L31.2867 23.0387L29.8646 23.3432V23.6477L35.2483 22.5313L40.3273 21.4148L41.5463 21.2119H42.1558L41.851 22.5313L39.7178 27.9103L38.9052 29.9402L37.1783 34.1014L36.5688 35.6237L35.2483 38.567L33.9278 41.7133L33.1151 43.6416L32.6072 44.758L31.7946 46.6864L30.9819 48.5132L30.3725 49.4267H30.0677L30.2709 46.8894L30.8804 41.5103L31.5914 34.9133L32.0993 30.2447L32.3025 28.4178L31.7946 28.9253L31.3883 32.0715L30.9819 35.8267L30.6772 38.364L30.0677 44.3521L29.6614 48.0058L29.4582 49.6297L29.2551 50.0356L28.6456 49.5282L27.6298 48.1073L26.0045 45.773L25.2935 44.6565L24.0745 42.9312L23.0587 41.4088L20.1129 37.0446L18.386 34.4058L17.0655 32.2745L15.6433 30.0417L13.4086 26.5909L12.4944 25.17L11.0722 23.0387L10.3612 21.9223L10.0564 21.5163V21.3133L9.65011 21.1104L8.43115 20.1969L6.19639 18.6746L4.26636 17.2537L3.96162 17.0507L4.0632 16.7462L6.80587 15.1223L8.02483 14.4119L9.65011 13.5999L11.2754 12.6865L12.6975 11.8746L15.237 10.4537L17.9797 8.93131L20.8239 7.30743L22.1445 6.59699L22.6524 6.69848L23.465 7.7134L25.0903 10.2507L28.544 15.4268L29.1535 16.2387L29.4582 15.8328L30.0677 14.7164L31.2867 12.585L32.5056 10.3522L33.7246 8.01788L34.9436 5.78505L36.4673 2.84178L37.6862 0.608953L38.0925 0Z" fill="#242B33"/>
<path d="M16.5576 33.1879H16.9639L16.7607 34.2028L15.6433 36.8416L14.8307 38.77L14.7291 39.5819L15.237 40.1909L16.2528 41.0028L17.3702 41.9163L18.7923 43.1342L20.5192 44.4536L21.8397 45.57L23.2619 46.6864L24.3792 47.5998L25.8014 48.7162L27.4266 50.0356L28.2393 50.6446L28.9503 51.2535V51.355H25.6998L20.316 50.8476L16.5576 50.4416L11.0722 49.9341L7.72009 49.4267L7.21219 49.2237L5.79007 47.0923L4.46953 44.8595L2.43792 41.4088L1.21896 39.3789L0.10158 37.4506L0 36.9431L0.711061 36.6387L5.38375 35.6237L7.82167 35.1163L10.6659 34.5073L13.4086 33.8984L16.5576 33.1879Z" fill="#242B33"/>
<path d="M3.25056 17.9641L3.75847 18.0656L5.89165 19.4865L7.51693 20.6029L8.73589 21.5163L9.14221 21.9223L9.04063 22.5313L8.32957 23.7492L6.80587 26.0835L2.74266 32.173L0.406321 35.6237L0.10158 35.8267L0 35.7252L0.10158 34.2029L0.711061 30.8536L1.62528 25.8805L2.23476 22.6327L2.74266 20.0954L3.14898 18.1671L3.25056 17.9641Z" fill="#242B33"/>
<path d="M43.6795 22.4298L43.8826 22.7342L44.4921 28.7223L44.7968 32.579L45 36.9431V37.9581L44.4921 37.8566L42.8668 37.4506L39.2099 36.2327L38.1941 35.7252L39.3115 32.782L40.1242 30.7521L41.3431 27.8088L42.2573 25.576L43.4763 22.6327L43.6795 22.4298Z" fill="#242B33"/>
<path d="M37.7878 36.8416L38.8036 36.9431L44.1874 38.77L44.3905 38.8715L44.1874 39.3789L43.1716 40.3939L42.0542 41.3073L40.4289 42.8297L39.3115 43.7431L37.7878 45.164L36.9752 45.8744L35.9594 46.7879L35.1467 47.4983L33.3183 48.9192L32.8104 49.2237L32.5056 49.1222L32.8104 48.2088L33.3183 46.9909L34.6388 43.9461L35.2483 42.5252L36.0609 40.5969L37.3815 37.4506L37.7878 36.8416Z" fill="#242B33"/>
</svg>
